Coordinates
version=1
nRows=8
nColumns=36
inDegrees=yes

Units are S.I. units (second, meters, Newtons, ...)
If the header above contains a line with 'inDegrees', this indicates whether rotational values are in degrees (yes) or radians (no).

endheader
time	pelvis_tilt	pelvis_list	pelvis_rotation	pelvis_tx	pelvis_ty	pelvis_tz	hip_flexion_r	hip_adduction_r	hip_rotation_r	knee_angle_r	knee_angle_r_beta	ankle_angle_r	subtalar_angle_r	mtp_angle_r	hip_flexion_l	hip_adduction_l	hip_rotation_l	knee_angle_l	knee_angle_l_beta	ankle_angle_l	subtalar_angle_l	mtp_angle_l	lumbar_extension	lumbar_bending	lumbar_rotation	arm_flex_r	arm_add_r	arm_rot_r	elbow_flex_r	pro_sup_r	arm_flex_l	arm_add_l	arm_rot_l	elbow_flex_l	pro_sup_l
      4.50000000	    -19.25069826	      0.52999743	     -9.04645815	      1.32657472	      0.96935858	      0.03302873	     35.65468476	    -11.30001819	    -19.67298515	     24.31265755	      0.42433592	      6.16818226	      6.19332537	     -7.49999987	     35.04254490	     -9.80117038	     -6.16123055	     24.06107972	      0.41994506	      8.67857475	     -0.71799461	     -7.49999987	     -7.59099052	     -1.14059530	      2.97705464	     67.30380764	     -6.94991217	     51.17195434	    135.43246868	    103.58300797	     75.69587876	      0.86302817	     65.94055127	    127.22119516	     95.22375330
      4.51666670	    -17.83735080	      0.34618719	     -9.32754551	      1.33635696	      0.98049483	      0.02791028	     31.90163358	    -10.68727162	    -20.15392060	     20.43245900	      0.35661368	      4.60012905	      7.14499876	     -7.49999987	     30.82857526	     -9.32812968	     -6.24581003	     19.92438929	      0.34774619	      7.09272407	     -0.62949514	     -7.49999987	     -7.33806505	     -0.66503346	      2.24315204	     65.52384259	     -6.89693324	     50.29744175	    135.66505029	    103.65883699	     73.45737445	     -2.17724184	     61.26162474	    126.01721521	     95.01699955
      4.53333330	    -16.45705385	      0.04804328	     -9.54425898	      1.34209801	      0.99076572	      0.03304687	     28.27837210	     -9.88726294	    -20.35177358	     16.76609709	      0.29262360	      3.17626746	      7.79502556	     -7.49999987	     26.88833738	     -9.06796672	     -6.22778657	     16.10947588	      0.28116339	      5.78521373	     -0.32145386	     -7.49999987	     -7.09161292	     -0.06141106	      2.37947792	     63.83905586	     -6.50182496	     50.93539949	    136.41410552	    103.99451555	     70.81889499	     -2.31688199	     59.83113439	    126.01760259	     95.22141041
      4.55000000	    -15.13025339	     -0.38720583	     -9.66449985	      1.34734279	      1.00281204	      0.03772123	     24.80969896	     -8.93297786	    -20.48975884	     13.48054701	      0.23527993	      1.74384635	      8.25344982	     -7.49999987	     23.30304912	     -9.09197439	     -6.34157006	     12.81317180	      0.22363204	      4.62673231	      0.17730510	     -7.49999987	     -6.87399871	      0.27701480	      3.20878175	     61.48189438	     -5.92176573	     52.77818283	    137.40935093	    105.63634222	     68.36894465	      0.22033396	     63.00627349	    126.74607619	     98.75762219
      4.56666670	    -13.63380449	     -0.89731159	     -9.78803070	      1.36216296	      1.00728299	      0.04448091	     20.95636988	     -7.81385339	    -20.46472380	      9.96802743	      0.17397490	      0.29909115	      8.52291844	     -7.49999987	     19.33887748	     -9.20945379	     -6.41557475	      9.48261910	      0.16550292	      3.37985727	      0.47261944	     -7.49999987	     -6.53812376	      0.59058469	      3.86766335	     58.96471805	     -5.67512177	     52.53453338	    137.33946699	    105.27052093	     65.78715578	      1.56898964	     65.68733344	    128.31915216	     99.12534813
      4.58333330	    -12.37565479	     -1.34732269	     -9.91045035	      1.36601239	      1.01289110	      0.04897996	     17.64694908	     -6.79693465	    -19.96797658	      6.92444227	      0.12085432	     -1.06143763	      8.61181409	     -7.49999987	     15.86693510	     -9.38238015	     -6.49454941	      6.59376434	      0.11508290	      2.48237572	      0.90157150	     -7.49999987	     -6.12834490	      0.61737288	      4.41172498	     57.18027889	     -5.22329947	     52.67798646	    137.34666603	    104.90085897	     64.09329665	      2.70306562	     67.23533081	    129.47828666	     99.32573667
      4.60000000	    -11.34044799	     -1.66143501	    -10.05007484	      1.37057375	      1.01537441	      0.05275094	     14.91990466	     -5.95737498	    -19.23983602	      4.45347854	      0.07772786	     -2.13142399	      8.51857058	     -7.49999987	     13.06581083	     -9.52800217	     -6.73637695	      4.37957592	      0.07643802	      2.12434227	      1.57076539	     -7.49999987	     -5.57037817	      0.53015528	      5.27847754	     54.90866188	     -5.44090630	     52.99005264	    137.60912975	    100.12365477	     61.46810071	      2.28782953	     68.13179379	    130.80449243	     95.78733800
      4.61666670	    -10.56360537	     -1.81847058	    -10.19741479	      1.36929455	      1.01979917	      0.05281261	     13.04517701	     -5.47473532	    -18.39211335	      2.87567793	      0.05019005	     -3.08981290	      7.97648005	     -7.49999987	     10.99983878	     -9.55316104	     -6.41541430	      2.93289556	      0.05118868	      2.19238695	      1.51511044	     -7.49999987	     -5.41384825	      0.38201911	      5.04820042	     52.88045310	     -5.13133606	     52.19659519	    136.88159863	     99.85939482	     58.80398593	     -1.02781165	     63.98485496	    131.24283403	     95.65369663
